<svg width="301" height="301" viewBox="0 0 301 301" fill="none" xmlns="http://www.w3.org/2000/svg">
  <rect width="301" height="301" fill="none" />
  <path
    d="M175.867 86.6C131.067 111.4 78.6667 140.733 53.6 154.867L31.8667 167V185.933C31.8667 196.467 32.2667 205 32.6667 205C33.0667 205 48.2667 196.6 66.2667 186.467C84.4 176.2 123.067 154.6 152.267 138.467L205.333 109.133L237.867 108.2L270.533 107.267V88.0667V69H238.933L207.2 69.1333L175.867 86.6Z"
    fill="#1C2A48"
  />
  <path
    d="M175.867 86.6C131.067 111.4 78.6667 140.733 53.6 154.867L31.8667 167V185.933C31.8667 196.467 32.2667 205 32.6667 205C33.0667 205 48.2667 196.6 66.2667 186.467C84.4 176.2 123.067 154.6 152.267 138.467L205.333 109.133L237.867 108.2L270.533 107.267V88.0667V69H238.933L207.2 69.1333L175.867 86.6Z"
    fill="#1C2A48"
  />
  <path
    d="M175.867 86.6C131.067 111.4 78.6667 140.733 53.6 154.867L31.8667 167V185.933C31.8667 196.467 32.2667 205 32.6667 205C33.0667 205 48.2667 196.6 66.2667 186.467C84.4 176.2 123.067 154.6 152.267 138.467L205.333 109.133L237.867 108.2L270.533 107.267V88.0667V69H238.933L207.2 69.1333L175.867 86.6Z"
    fill="#1C2A48"
  />
  <path
    d="M175.867 86.6C131.067 111.4 78.6667 140.733 53.6 154.867L31.8667 167V185.933C31.8667 196.467 32.2667 205 32.6667 205C33.0667 205 48.2667 196.6 66.2667 186.467C84.4 176.2 123.067 154.6 152.267 138.467L205.333 109.133L237.867 108.2L270.533 107.267V88.0667V69H238.933L207.2 69.1333L175.867 86.6Z"
    fill="#1C2A48"
  />
  <path
    d="M216.533 128.867C215.067 130.2 145.067 169 98.5333 194.333C82 203.267 59.8667 215.533 49.3333 221.533L30 232.333L63.7333 232.733L97.3333 233L111.6 225.533C141.467 209.667 219.333 167.267 221.867 165.533C223.867 164.067 230.267 163.667 247.467 163.667H270.533V145.667V127.667H244.133C229.6 127.667 217.2 128.2 216.533 128.867Z"
    fill="#1C2A48"
  />
  <path
    d="M216.533 128.867C215.067 130.2 145.067 169 98.5333 194.333C82 203.267 59.8667 215.533 49.3333 221.533L30 232.333L63.7333 232.733L97.3333 233L111.6 225.533C141.467 209.667 219.333 167.267 221.867 165.533C223.867 164.067 230.267 163.667 247.467 163.667H270.533V145.667V127.667H244.133C229.6 127.667 217.2 128.2 216.533 128.867Z"
    fill="#1C2A48"
  />
  <path
    d="M216.533 128.867C215.067 130.2 145.067 169 98.5333 194.333C82 203.267 59.8667 215.533 49.3333 221.533L30 232.333L63.7333 232.733L97.3333 233L111.6 225.533C141.467 209.667 219.333 167.267 221.867 165.533C223.867 164.067 230.267 163.667 247.467 163.667H270.533V145.667V127.667H244.133C229.6 127.667 217.2 128.2 216.533 128.867Z"
    fill="#1C2A48"
  />
  <path
    d="M216.533 128.867C215.067 130.2 145.067 169 98.5333 194.333C82 203.267 59.8667 215.533 49.3333 221.533L30 232.333L63.7333 232.733L97.3333 233L111.6 225.533C141.467 209.667 219.333 167.267 221.867 165.533C223.867 164.067 230.267 163.667 247.467 163.667H270.533V145.667V127.667H244.133C229.6 127.667 217.2 128.2 216.533 128.867Z"
    fill="#1C2A48"
  />
  <path
    d="M245.733 184.6C240 185 233.067 188.333 198.933 206.733C176.933 218.6 157.467 229.4 155.733 230.6C152.667 232.733 155.6 232.867 211.6 232.867L270.533 233V208.333V183.667L261.6 183.933C256.533 184.067 249.467 184.333 245.733 184.6Z"
    fill="#1C2A48"
  />
  <path
    d="M245.733 184.6C240 185 233.067 188.333 198.933 206.733C176.933 218.6 157.467 229.4 155.733 230.6C152.667 232.733 155.6 232.867 211.6 232.867L270.533 233V208.333V183.667L261.6 183.933C256.533 184.067 249.467 184.333 245.733 184.6Z"
    fill="#1C2A48"
  />
  <path
    d="M245.733 184.6C240 185 233.067 188.333 198.933 206.733C176.933 218.6 157.467 229.4 155.733 230.6C152.667 232.733 155.6 232.867 211.6 232.867L270.533 233V208.333V183.667L261.6 183.933C256.533 184.067 249.467 184.333 245.733 184.6Z"
    fill="#1C2A48"
  />
  <path
    d="M245.733 184.6C240 185 233.067 188.333 198.933 206.733C176.933 218.6 157.467 229.4 155.733 230.6C152.667 232.733 155.6 232.867 211.6 232.867L270.533 233V208.333V183.667L261.6 183.933C256.533 184.067 249.467 184.333 245.733 184.6Z"
    fill="#1C2A48"
  />
</svg>
